<?xml version="1.0" encoding="utf-8"?>
<svg xmlns="http://www.w3.org/2000/svg" style="display: none;">

    <symbol id="loupe" xmlns="http://www.w3.org/2000/svg" viewBox="0 0 40 40" width="40" height="40"><g fill="#616161"><path d="m29.175 31.99l2.828-2.827l12.019 12.019l-2.828 2.827z"/><circle cx="20" cy="20" r="16"/></g><path fill="#37474F" d="m32.45 35.34l2.827-2.828l8.696 8.696l-2.828 2.828z"/><circle cx="20" cy="20" r="13" fill="#64B5F6"/><path fill="#BBDEFB" d="M26.9 14.2c-1.7-2-4.2-3.2-6.9-3.2s-5.2 1.2-6.9 3.2c-.4.4-.3 1.1.1 1.4c.4.4 1.1.3 1.4-.1C16 13.9 17.9 13 20 13s4 .9 5.4 2.5c.2.2.5.4.8.4c.2 0 .5-.1.6-.2c.4-.4.4-1.1.1-1.5"/>
    </symbol>

    <symbol id="medal" xmlns="http://www.w3.org/2000/svg" width="54" height="54" viewBox="0 0 32 32"><g fill="none"><g filter="url(#IconifyId1955375ed8d98608a27)"><path fill="#4686EC" d="m14.035 3.552l4.264 7.284l-6.016 1.71C8.128 11.173 5.681 8.53 4.205 5.814c-.622-1.146-.617-3.25 1.856-3.25h6.248a2 2 0 0 1 1.726.989"/><path fill="url(#IconifyId1955375ed8d98608a23)" d="m14.035 3.552l4.264 7.284l-6.016 1.71C8.128 11.173 5.681 8.53 4.205 5.814c-.622-1.146-.617-3.25 1.856-3.25h6.248a2 2 0 0 1 1.726.989"/><path fill="url(#IconifyId1955375ed8d98608a15)" d="m14.035 3.552l4.264 7.284l-6.016 1.71C8.128 11.173 5.681 8.53 4.205 5.814c-.622-1.146-.617-3.25 1.856-3.25h6.248a2 2 0 0 1 1.726.989"/></g><g filter="url(#IconifyId1955375ed8d98608a28)"><path fill="#4686EC" d="m17.812 3.552l-4.264 7.284l6.016 1.71c4.155-1.374 6.602-4.017 8.078-6.733c.622-1.146.617-3.25-1.856-3.25h-6.248a2 2 0 0 0-1.726.989"/><path fill="url(#IconifyId1955375ed8d98608a24)" d="m17.812 3.552l-4.264 7.284l6.016 1.71c4.155-1.374 6.602-4.017 8.078-6.733c.622-1.146.617-3.25-1.856-3.25h-6.248a2 2 0 0 0-1.726.989"/><path fill="url(#IconifyId1955375ed8d98608a16)" d="m17.812 3.552l-4.264 7.284l6.016 1.71c4.155-1.374 6.602-4.017 8.078-6.733c.622-1.146.617-3.25-1.856-3.25h-6.248a2 2 0 0 0-1.726.989"/></g><path fill="url(#IconifyId1955375ed8d98608a17)" d="m17.812 3.552l-4.264 7.284l6.016 1.71c4.155-1.374 6.602-4.017 8.078-6.733c.622-1.146.617-3.25-1.856-3.25h-6.248a2 2 0 0 0-1.726.989"/><circle cx="16.047" cy="20.132" r="10.048" fill="url(#IconifyId1955375ed8d98608a18)"/><circle cx="16.047" cy="20.132" r="10.048" fill="url(#IconifyId1955375ed8d98608a19)"/><circle cx="16.047" cy="20.132" r="8.688" fill="url(#IconifyId1955375ed8d98608a20)"/><circle cx="16.047" cy="20.132" r="7.585" fill="url(#IconifyId1955375ed8d98608a21)"/><circle cx="16.047" cy="20.132" r="7.585" fill="url(#IconifyId1955375ed8d98608a25)"/><circle cx="16.047" cy="20.132" r="7.585" fill="url(#IconifyId1955375ed8d98608a26)"/><g filter="url(#IconifyId1955375ed8d98608a29)"><path fill="#6F3955" d="M17.22 16.8a.8.8 0 0 0-.8-.8h-1.94a.4.4 0 0 0-.4.4v1.177c0 .22.178.4.4.4h.443a.25.25 0 0 1 .25.25V24a.5.5 0 0 0 .5.5h1.047a.5.5 0 0 0 .5-.5z"/></g><path fill="url(#IconifyId1955375ed8d98608a22)" d="M17.22 16.8a.8.8 0 0 0-.8-.8h-1.94a.4.4 0 0 0-.4.4v1.177c0 .22.178.4.4.4h.443a.25.25 0 0 1 .25.25V24a.5.5 0 0 0 .5.5h1.047a.5.5 0 0 0 .5-.5z"/><defs><linearGradient id="IconifyId1955375ed8d98608a15" x1="6.582" x2="8.377" y1="2.023" y2="6.493" gradientUnits="userSpaceOnUse"><stop stop-color="#3D89EC"/><stop offset="1" stop-color="#3D89EC" stop-opacity="0"/></linearGradient><linearGradient id="IconifyId1955375ed8d98608a16" x1="25.265" x2="23.47" y1="2.023" y2="6.493" gradientUnits="userSpaceOnUse"><stop stop-color="#3D89EC"/><stop offset="1" stop-color="#3D89EC" stop-opacity="0"/></linearGradient><linearGradient id="IconifyId1955375ed8d98608a17" x1="15.749" x2="16.086" y1="7.063" y2="7.25" gradientUnits="userSpaceOnUse"><stop stop-color="#1A6DD8"/><stop offset="1" stop-color="#1A6DD8" stop-opacity="0"/></linearGradient><linearGradient id="IconifyId1955375ed8d98608a18" x1="21.418" x2="14.413" y1="16.57" y2="23.434" gradientUnits="userSpaceOnUse"><stop stop-color="#F4C654"/><stop offset="1" stop-color="#DC9729"/></linearGradient><linearGradient id="IconifyId1955375ed8d98608a19" x1="12.536" x2="14.802" y1="30.668" y2="17.527" gradientUnits="userSpaceOnUse"><stop stop-color="#FA8547"/><stop offset="1" stop-color="#FA8547" stop-opacity="0"/></linearGradient><linearGradient id="IconifyId1955375ed8d98608a20" x1="23.963" x2="16.047" y1="18.613" y2="18.613" gradientUnits="userSpaceOnUse"><stop stop-color="#F9A842"/><stop offset="1" stop-color="#FAA742"/><stop offset="1" stop-color="#FAA742"/></linearGradient><linearGradient id="IconifyId1955375ed8d98608a21" x1="12.541" x2="23.855" y1="19.17" y2="19.17" gradientUnits="userSpaceOnUse"><stop stop-color="#FAA945"/><stop offset="1" stop-color="#EC9936"/></linearGradient><linearGradient id="IconifyId1955375ed8d98608a22" x1="16.423" x2="16.423" y1="24.5" y2="23.683" gradientUnits="userSpaceOnUse"><stop stop-color="#693B2E"/><stop offset="1" stop-color="#693B2E" stop-opacity="0"/></linearGradient><radialGradient id="IconifyId1955375ed8d98608a23" cx="0" cy="0" r="1" gradientTransform="rotate(-123.321 9.745 2.387)scale(4.60352 17.1923)" gradientUnits="userSpaceOnUse"><stop stop-color="#3669D9"/><stop offset="1" stop-color="#3669D9" stop-opacity="0"/></radialGradient><radialGradient id="IconifyId1955375ed8d98608a24" cx="0" cy="0" r="1" gradientTransform="rotate(-57.265 20.217 -11.245)scale(3.0487 6.68733)" gradientUnits="userSpaceOnUse"><stop stop-color="#3669D9"/><stop offset="1" stop-color="#3669D9" stop-opacity="0"/></radialGradient><radialGradient id="IconifyId1955375ed8d98608a25" cx="0" cy="0" r="1" gradientTransform="matrix(-10.5257 0 0 -8.96905 18.988 20.132)" gradientUnits="userSpaceOnUse"><stop offset=".893" stop-color="#F7B44D" stop-opacity="0"/><stop offset="1" stop-color="#F7B44D"/></radialGradient><radialGradient id="IconifyId1955375ed8d98608a26" cx="0" cy="0" r="1" gradientTransform="matrix(10.128 0 0 8.88135 14.078 20.132)" gradientUnits="userSpaceOnUse"><stop offset=".879" stop-color="#D2801F" stop-opacity="0"/><stop offset=".983" stop-color="#D2801F"/></radialGradient><filter id="IconifyId1955375ed8d98608a27" width="14.889" height="10.434" x="3.61" y="2.362" color-interpolation-filters="sRGB" filterUnits="userSpaceOnUse"><feFlood flood-opacity="0" result="BackgroundImageFix"/><feBlend in="SourceGraphic" in2="BackgroundImageFix" result="shape"/><feColorMatrix in="SourceAlpha" result="hardAlpha" values="0 0 0 0 0 0 0 0 0 0 0 0 0 0 0 0 0 0 127 0"/><feOffset dx="-.2" dy="-.2"/><feGaussianBlur stdDeviation=".2"/><feComposite in2="hardAlpha" k2="-1" k3="1" operator="arithmetic"/><feColorMatrix values="0 0 0 0 0.317647 0 0 0 0 0.458824 0 0 0 0 0.886275 0 0 0 1 0"/><feBlend in2="shape" result="effect1_innerShadow_18_1526"/><feColorMatrix in="SourceAlpha" result="hardAlpha" values="0 0 0 0 0 0 0 0 0 0 0 0 0 0 0 0 0 0 127 0"/><feOffset dx=".2" dy=".2"/><feGaussianBlur stdDeviation=".2"/><feComposite in2="hardAlpha" k2="-1" k3="1" operator="arithmetic"/><feColorMatrix values="0 0 0 0 0.317647 0 0 0 0 0.458824 0 0 0 0 0.886275 0 0 0 1 0"/><feBlend in2="effect1_innerShadow_18_1526" result="effect2_innerShadow_18_1526"/><feColorMatrix in="SourceAlpha" result="hardAlpha" values="0 0 0 0 0 0 0 0 0 0 0 0 0 0 0 0 0 0 127 0"/><feOffset dx="-.25" dy=".25"/><feGaussianBlur stdDeviation=".25"/><feComposite in2="hardAlpha" k2="-1" k3="1" operator="arithmetic"/><feColorMatrix values="0 0 0 0 0.372549 0 0 0 0 0.607843 0 0 0 0 0.960784 0 0 0 1 0"/><feBlend in2="effect2_innerShadow_18_1526" result="effect3_innerShadow_18_1526"/></filter><filter id="IconifyId1955375ed8d98608a28" width="14.889" height="10.434" x="13.298" y="2.362" color-interpolation-filters="sRGB" filterUnits="userSpaceOnUse"><feFlood flood-opacity="0" result="BackgroundImageFix"/><feBlend in="SourceGraphic" in2="BackgroundImageFix" result="shape"/><feColorMatrix in="SourceAlpha" result="hardAlpha" values="0 0 0 0 0 0 0 0 0 0 0 0 0 0 0 0 0 0 127 0"/><feOffset dx="-.2" dy="-.2"/><feGaussianBlur stdDeviation=".2"/><feComposite in2="hardAlpha" k2="-1" k3="1" operator="arithmetic"/><feColorMatrix values="0 0 0 0 0.317647 0 0 0 0 0.458824 0 0 0 0 0.886275 0 0 0 1 0"/><feBlend in2="shape" result="effect1_innerShadow_18_1526"/><feColorMatrix in="SourceAlpha" result="hardAlpha" values="0 0 0 0 0 0 0 0 0 0 0 0 0 0 0 0 0 0 127 0"/><feOffset dx=".2" dy=".2"/><feGaussianBlur stdDeviation=".2"/><feComposite in2="hardAlpha" k2="-1" k3="1" operator="arithmetic"/><feColorMatrix values="0 0 0 0 0.317647 0 0 0 0 0.458824 0 0 0 0 0.886275 0 0 0 1 0"/><feBlend in2="effect1_innerShadow_18_1526" result="effect2_innerShadow_18_1526"/><feColorMatrix in="SourceAlpha" result="hardAlpha" values="0 0 0 0 0 0 0 0 0 0 0 0 0 0 0 0 0 0 127 0"/><feOffset dx="-.25" dy=".25"/><feGaussianBlur stdDeviation=".25"/><feComposite in2="hardAlpha" k2="-1" k3="1" operator="arithmetic"/><feColorMatrix values="0 0 0 0 0.372549 0 0 0 0 0.607843 0 0 0 0 0.960784 0 0 0 1 0"/><feBlend in2="effect2_innerShadow_18_1526" result="effect3_innerShadow_18_1526"/></filter><filter id="IconifyId1955375ed8d98608a29" width="3.641" height="9" x="13.779" y="15.8" color-interpolation-filters="sRGB" filterUnits="userSpaceOnUse"><feFlood flood-opacity="0" result="BackgroundImageFix"/><feBlend in="SourceGraphic" in2="BackgroundImageFix" result="shape"/><feColorMatrix in="SourceAlpha" result="hardAlpha" values="0 0 0 0 0 0 0 0 0 0 0 0 0 0 0 0 0 0 127 0"/><feOffset dx="-.3" dy=".3"/><feGaussianBlur stdDeviation=".3"/><feComposite in2="hardAlpha" k2="-1" k3="1" operator="arithmetic"/><feColorMatrix values="0 0 0 0 0.392157 0 0 0 0 0.164706 0 0 0 0 0.254902 0 0 0 1 0"/><feBlend in2="shape" result="effect1_innerShadow_18_1526"/><feColorMatrix in="SourceAlpha" result="hardAlpha" values="0 0 0 0 0 0 0 0 0 0 0 0 0 0 0 0 0 0 127 0"/><feOffset dx=".2" dy="-.2"/><feGaussianBlur stdDeviation=".2"/><feComposite in2="hardAlpha" k2="-1" k3="1" operator="arithmetic"/><feColorMatrix values="0 0 0 0 0.501961 0 0 0 0 0.333333 0 0 0 0 0.360784 0 0 0 1 0"/><feBlend in2="effect1_innerShadow_18_1526" result="effect2_innerShadow_18_1526"/></filter></defs></g>
    </symbol>


    <symbol id="shield" xmlns="http://www.w3.org/2000/svg" width="128" height="128" viewBox="0 0 28 28"><g fill="none"><path fill="url(#IconifyId1955375ed8d98608a34)" d="M13.56 2.142a.75.75 0 0 1 .878 0c.643.464 2.088 1.312 3.897 2.041c1.81.73 3.922 1.317 5.913 1.317a.75.75 0 0 1 .75.75v7.752c0 3.027-1.703 5.841-3.838 7.95c-2.133 2.107-4.827 3.64-7.033 4.024l-.128.022l-.129-.022c-2.205-.385-4.9-1.917-7.033-4.024C4.703 19.843 3 17.029 3 14.002V6.25a.75.75 0 0 1 .75-.75c1.991 0 4.103-.587 5.914-1.317c1.808-.73 3.253-1.577 3.896-2.04"/><path fill="url(#IconifyId1955375ed8d98608a35)" fill-opacity=".5" d="M13.56 2.142a.75.75 0 0 1 .878 0c.643.464 2.088 1.312 3.897 2.041c1.81.73 3.922 1.317 5.913 1.317a.75.75 0 0 1 .75.75v7.752c0 3.027-1.703 5.841-3.838 7.95c-2.133 2.107-4.827 3.64-7.033 4.024l-.128.022l-.129-.022c-2.205-.385-4.9-1.917-7.033-4.024C4.703 19.843 3 17.029 3 14.002V6.25a.75.75 0 0 1 .75-.75c1.991 0 4.103-.587 5.914-1.317c1.808-.73 3.253-1.577 3.896-2.04"/><path fill="#404040" d="M27 20.5a6.5 6.5 0 1 1-13 0a6.5 6.5 0 0 1 13 0"/><path fill="url(#IconifyId1955375ed8d98608a36)" d="M27 20.5a6.5 6.5 0 1 1-13 0a6.5 6.5 0 0 1 13 0"/><path fill="#000" fill-rule="evenodd" d="M24.354 17.646a.5.5 0 0 1 0 .708l-5 5a.5.5 0 0 1-.708 0l-2-2a.5.5 0 0 1 .708-.708L19 22.293l4.646-4.647a.5.5 0 0 1 .708 0" clip-rule="evenodd"/><path fill="url(#IconifyId1955375ed8d98608a37)" fill-rule="evenodd" d="M24.354 17.646a.5.5 0 0 1 0 .708l-5 5a.5.5 0 0 1-.708 0l-2-2a.5.5 0 0 1 .708-.708L19 22.293l4.646-4.647a.5.5 0 0 1 .708 0" clip-rule="evenodd"/><defs><radialGradient id="IconifyId1955375ed8d98608a34" cx="0" cy="0" r="1" gradientTransform="rotate(54 8.463 -11.286)scale(57.4728 51.0658)" gradientUnits="userSpaceOnUse"><stop offset=".338" stop-color="#0FAFFF"/><stop offset=".529" stop-color="#367AF2"/><stop offset=".682" stop-color="#5750E2"/><stop offset=".861" stop-color="#CC23D1"/></radialGradient><radialGradient id="IconifyId1955375ed8d98608a35" cx="0" cy="0" r="1" gradientTransform="matrix(0 8 -8.38074 0 20.5 22.5)" gradientUnits="userSpaceOnUse"><stop offset=".5" stop-color="#1E1868"/><stop offset="1" stop-color="#1E1868" stop-opacity="0"/></radialGradient><linearGradient id="IconifyId1955375ed8d98608a36" x1="14.464" x2="23.436" y1="16.438" y2="25.759" gradientUnits="userSpaceOnUse"><stop stop-color="#52D17C"/><stop offset="1" stop-color="#22918B"/></linearGradient><linearGradient id="IconifyId1955375ed8d98608a37" x1="18" x2="19.427" y1="18.112" y2="24.829" gradientUnits="userSpaceOnUse"><stop stop-color="#fff"/><stop offset="1" stop-color="#E3FFD9"/></linearGradient></defs></g>
    </symbol>

</svg>